<svg xmlns="http://www.w3.org/2000/svg" viewBox="0 0 2017 1052" preserveAspectRatio="xMidYMid meet">
  <defs>
    <linearGradient id="cornerGradTR" x1="0" y1="0" x2="1" y2="1">
      <stop offset="0%" stop-color="#F5E045"/>
      <stop offset="100%" stop-color="#F3B93E"/>
    </linearGradient>
    <linearGradient id="cornerGradBL" x1="1" y1="1" x2="0" y2="0">
      <stop offset="0%" stop-color="#F5E045"/>
      <stop offset="100%" stop-color="#F3B93E"/>
    </linearGradient>
  </defs>

  <!-- Top-right corner -->
  <path d="M 2007.00 471.50 L 1876.50 341.00 L 1876.50 144.00 L 1873.00 138.50 L 1866.00 135.50 L 1669.00 135.50 L 1539.50 5.00 L 1986.00 4.50 L 2000.00 11.50 L 2006.50 21.00 L 2008.50 29.00 L 2007.00 471.50 Z" fill="url(#cornerGradTR)"/>

  <!-- Bottom-left corner -->
  <path d="M 473.00 1043.50 L 31.00 1043.50 L 21.00 1040.50 L 15.50 1036.00 L 9.50 1027.00 L 7.50 1018.00 L 9.00 575.50 L 139.50 706.00 L 140.50 906.00 L 149.00 912.50 L 346.00 912.50 L 473.50 1040.00 L 473.00 1043.50 Z" fill="url(#cornerGradBL)"/>

  <!-- Text (RCBF + SIGNS / GRAFIX) -->
  <path d="M 865.00 651.50 L 829.00 651.50 L 808.00 648.50 L 788.00 643.50 L 764.00 634.50 L 748.00 626.50 L 720.00 607.50 L 693.50 582.00 L 679.50 564.00 L 669.50 548.00 L 659.50 528.00 L 652.50 509.00 L 644.50 471.00 L 644.50 427.00 L 652.50 388.00 L 659.50 369.00 L 670.50 347.00 L 687.50 322.00 L 702.50 305.00 L 715.00 293.50 L 748.00 270.50 L 768.00 260.50 L 791.00 252.50 L 827.00 245.50 L 867.00 245.50 L 900.00 251.50 L 931.00 262.50 L 964.00 281.50 L 983.00 296.50 L 998.50 312.00 L 1016.50 335.00 L 1034.50 368.00 L 1044.50 397.00 L 1044.50 404.00 L 1043.00 405.50 L 1031.00 407.50 L 945.00 406.50 L 940.50 402.00 L 927.50 382.00 L 912.00 366.50 L 905.00 361.50 L 886.00 351.50 L 874.00 347.50 L 857.00 344.50 L 829.00 345.50 L 808.00 351.50 L 789.00 361.50 L 780.00 368.50 L 760.50 390.00 L 750.50 409.00 L 743.50 435.00 L 743.50 461.00 L 747.50 480.00 L 757.50 502.00 L 768.50 517.00 L 778.00 526.50 L 796.00 539.50 L 817.00 548.50 L 836.00 552.50 L 858.00 552.50 L 875.00 549.50 L 894.00 542.50 L 913.00 530.50 L 927.50 516.00 L 938.50 500.00 L 947.50 479.00 L 952.00 475.50 L 1045.00 475.50 L 1047.50 478.00 L 1047.50 486.00 L 1042.50 507.00 L 1036.50 524.00 L 1025.50 547.00 L 1011.50 569.00 L 987.00 596.50 L 964.00 615.50 L 935.00 632.50 L 903.00 644.50 L 865.00 651.50 Z M 598.00 639.50 L 490.00 638.50 L 481.50 628.00 L 423.50 519.00 L 418.00 511.50 L 378.00 511.50 L 375.50 514.00 L 375.50 630.00 L 372.00 637.50 L 369.00 639.50 L 279.00 639.50 L 272.50 634.00 L 272.50 262.00 L 277.00 255.50 L 283.00 253.50 L 477.00 254.50 L 497.00 258.50 L 519.00 267.50 L 535.00 277.50 L 554.50 295.00 L 569.50 315.00 L 582.50 343.00 L 588.50 371.00 L 587.50 401.00 L 579.50 427.00 L 567.50 448.00 L 556.50 462.00 L 543.00 475.50 L 526.00 487.50 L 523.50 491.00 L 598.50 625.00 L 601.50 635.00 L 598.00 639.50 Z M 1310.00 639.50 L 1098.00 639.50 L 1093.50 637.00 L 1091.50 633.00 L 1091.50 261.00 L 1093.50 257.00 L 1097.00 254.50 L 1280.00 253.50 L 1307.00 256.50 L 1332.00 265.50 L 1353.00 278.50 L 1367.50 292.00 L 1382.50 313.00 L 1387.50 323.00 L 1393.50 342.00 L 1395.50 353.00 L 1395.50 378.00 L 1392.50 394.00 L 1387.50 408.00 L 1382.50 418.00 L 1372.50 431.00 L 1372.50 433.00 L 1390.50 453.00 L 1396.50 462.00 L 1407.50 485.00 L 1413.50 511.00 L 1413.50 535.00 L 1411.50 547.00 L 1405.50 566.00 L 1398.50 580.00 L 1379.00 605.50 L 1362.00 619.50 L 1340.00 631.50 L 1329.00 635.50 L 1310.00 639.50 Z M 1545.00 639.50 L 1455.00 639.50 L 1448.50 633.00 L 1448.50 261.00 L 1453.00 255.50 L 1460.00 253.50 L 1721.00 254.50 L 1726.50 260.00 L 1727.50 266.00 L 1727.50 331.00 L 1726.50 337.00 L 1724.00 340.50 L 1720.00 342.50 L 1554.00 342.50 L 1551.50 345.00 L 1551.50 422.00 L 1554.00 424.50 L 1677.00 424.50 L 1681.50 428.00 L 1683.50 433.00 L 1683.50 501.00 L 1681.50 506.00 L 1677.00 509.50 L 1554.00 509.50 L 1551.50 512.00 L 1551.50 632.00 L 1550.50 635.00 L 1545.00 639.50 Z M 1256.50 406.00 L 1263.00 405.50 L 1274.00 401.50 L 1285.50 392.00 L 1290.50 384.00 L 1293.50 373.00 L 1293.50 363.00 L 1291.50 355.00 L 1285.50 345.00 L 1274.00 335.50 L 1259.00 330.50 L 1197.00 330.50 L 1194.50 333.00 L 1194.50 404.00 L 1197.00 406.50 L 1256.50 406.00 Z M 443.50 428.00 L 451.00 426.50 L 465.00 418.50 L 472.50 411.00 L 479.50 400.00 L 482.50 391.00 L 483.50 381.00 L 481.50 369.00 L 475.50 356.00 L 462.00 342.50 L 451.00 336.50 L 444.00 334.50 L 378.00 334.50 L 375.50 337.00 L 375.50 426.00 L 378.00 428.50 L 443.50 428.00 Z M 1270.50 563.00 L 1282.00 560.50 L 1289.00 556.50 L 1300.50 545.00 L 1305.50 536.00 L 1308.50 517.00 L 1305.50 504.00 L 1299.50 493.00 L 1287.00 481.50 L 1272.00 475.50 L 1197.00 475.50 L 1194.50 478.00 L 1194.50 561.00 L 1197.00 563.50 L 1270.50 563.00 Z" fill="currentColor" fill-rule="evenodd"/>

  <!-- Subtext as SVG text (inherits color) -->
  <text x="1008.5" y="760"
        text-anchor="middle"
        dominant-baseline="middle"
        font-family="Montserrat, Inter, Poppins, Arial, sans-serif"
        font-size="74"
        font-weight="500"
        letter-spacing="28"
        fill="currentColor">SIGNS / GRAFIX</text>

</svg>
